<svg width="61" height="53" viewBox="0 0 61 53" fill="none" xmlns="http://www.w3.org/2000/svg">
<path d="M45.7239 0L45.0258 0.695363C53.9911 5.78675 60.0503 15.4456 60.0503 26.5C60.0503 37.5496 53.9911 47.2085 45.0258 52.3046L45.7239 53C54.8459 47.7086 61 37.8116 61 26.5C61 15.1884 54.8459 5.29143 45.7239 0ZM15.9789 0.700126L15.2809 0C6.15413 5.29143 0 15.1884 0 26.5C0 37.8116 6.15413 47.7086 15.2809 53L15.9789 52.2999C7.01362 47.2085 0.949712 37.5496 0.949712 26.5C0.949712 15.4456 7.01362 5.78675 15.9789 0.700126Z" fill="black"/>
<path d="M37.922 7.82043L37.1907 8.5539C44.4322 11.2782 49.5987 18.2937 49.5987 26.5C49.5987 34.7015 44.4275 41.717 37.1859 44.4413L37.9172 45.1748H37.922C45.3155 42.2076 50.5484 34.9539 50.5484 26.5C50.5484 18.0413 45.3155 10.7876 37.922 7.82043ZM11.406 26.5C11.406 18.2985 16.5724 11.283 23.8092 8.5539L23.078 7.82043C15.6892 10.7876 10.4563 18.0413 10.4563 26.5C10.4563 34.9539 15.694 42.2123 23.0827 45.1748L23.814 44.4413C16.5724 41.717 11.406 34.7015 11.406 26.5Z" fill="black"/>
<path d="M30.5 25.1093C29.7402 25.1093 29.1182 25.7332 29.1182 26.5C29.1182 27.2621 29.7402 27.886 30.5 27.886C31.2645 27.886 31.8866 27.2621 31.8866 26.5C31.8866 25.7332 31.2645 25.1093 30.5 25.1093ZM30.5 26.9335C30.2626 26.9335 30.0679 26.7382 30.0679 26.5C30.0679 26.2571 30.2626 26.0619 30.5 26.0619C30.7422 26.0619 30.9369 26.2571 30.9369 26.5C30.9369 26.7382 30.7422 26.9335 30.5 26.9335Z" fill="black"/>
<path d="M30.5 16.9459C25.2481 16.9459 20.9744 21.2324 20.9744 26.5C20.9744 31.7676 25.2481 36.0541 30.5 36.0541C35.7566 36.0541 40.0256 31.7676 40.0256 26.5C40.0256 21.2324 35.7566 16.9459 30.5 16.9459ZM30.5 35.1016C25.7752 35.1016 21.9241 31.2437 21.9241 26.5C21.9241 21.7563 25.7752 17.8985 30.5 17.8985C35.2295 17.8985 39.0759 21.7563 39.0759 26.5C39.0759 31.2437 35.2295 35.1016 30.5 35.1016Z" fill="black"/>
</svg>
