<svg width="64" height="64" viewBox="0 0 64 64" fill="none" xmlns="http://www.w3.org/2000/svg">
<g clip-path="url(#clip0_131:462)">
<path d="M31.696 42.7663C31.4868 42.1834 31.2526 41.6104 31.0085 41.0325C30.5302 39.9065 29.9922 38.8105 29.3993 37.7393C28.8114 36.6632 28.1737 35.612 27.4862 34.5956C26.8086 33.5693 26.0812 32.5779 25.2841 31.6114C23.6898 29.7082 21.971 27.9545 20.1974 26.2705C18.4138 24.5816 16.6202 22.9674 14.7071 21.3682L12.2709 24.741C14.2288 25.9866 16.2017 27.3517 18.085 28.7666C19.9782 30.1815 21.8116 31.6662 23.5105 33.2654C25.1695 34.8746 26.7787 36.6333 28.1787 38.5265C29.5886 40.4147 30.869 42.4524 31.7658 44.6296L32.0049 44.6296L32.2441 44.6296C33.1409 42.4524 34.4213 40.4097 35.8312 38.5265C37.2312 36.6333 38.8404 34.8746 40.4994 33.2654C42.1933 31.6662 44.0317 30.1815 45.9249 28.7666C47.8032 27.3517 49.7811 25.9866 51.739 24.741L49.3028 21.3682C47.3946 22.9674 45.5961 24.5816 43.8125 26.2705C42.0389 27.9545 40.3201 29.7082 38.7258 31.6114C37.9286 32.5779 37.2013 33.5693 36.5237 34.5956C35.8362 35.617 35.1985 36.6682 34.6106 37.7393C34.0177 38.8105 33.4796 39.9115 33.0014 41.0325C32.7572 41.6054 32.5231 42.1784 32.3138 42.7663L32.0099 43.5983L31.696 42.7663Z" fill="black"/>
<path d="M-1.74795e-06 32C-9.76591e-07 14.3534 14.3534 -2.17012e-06 32 -1.39876e-06C49.6466 -6.27408e-07 64 14.3534 64 32C64 49.6466 49.6466 64 32 64C14.3534 64 -2.5193e-06 49.6466 -1.74795e-06 32ZM63.0036 32C63.0036 14.9064 49.0936 0.996418 32 0.996418C14.9064 0.996417 0.996422 14.9064 0.996421 32C0.99642 49.0936 14.9064 63.0036 32 63.0036C49.0936 63.0036 63.0036 49.0936 63.0036 32Z" fill="black"/>
</g>
<defs>
<clipPath id="clip0_131:462">
<rect width="64" height="64" fill="white" transform="translate(64) rotate(90)"/>
</clipPath>
</defs>
</svg>
