<svg width="80" height="114" viewBox="0 0 80 114" fill="none" xmlns="http://www.w3.org/2000/svg">
<path d="M74.31 66.62C70.48 69.83 66.87 73.07 63.29 76.46C59.73 79.84 56.28 83.36 53.08 87.18C51.48 89.12 50.02 91.11 48.66 93.17C47.28 95.22 46 97.33 44.82 99.48C43.63 101.63 42.55 103.84 41.59 106.09C41.1 107.24 40.63 108.39 40.21 109.57L43.52 0H35.67L38.98 109.57C38.56 108.4 38.09 107.25 37.6 106.09C36.64 103.83 35.56 101.63 34.37 99.48C33.19 97.32 31.91 95.21 30.53 93.17C29.17 91.11 27.71 89.12 26.11 87.18C22.91 83.36 19.46 79.84 15.9 76.46C12.32 73.07 8.72 69.83 4.88 66.62L0 73.38C3.93 75.88 7.89 78.62 11.67 81.46C15.47 84.3 19.15 87.28 22.56 90.49C25.89 93.72 29.12 97.25 31.93 101.05C34.76 104.84 37.33 108.93 39.13 113.3H39.61H40.09C41.89 108.93 44.46 104.83 47.29 101.05C50.1 97.25 53.33 93.72 56.66 90.49C60.06 87.28 63.75 84.3 67.55 81.46C71.32 78.62 75.29 75.88 79.22 73.38L74.31 66.62Z" fill="black"/>
</svg>
