<svg width="133" height="143" viewBox="0 0 133 143" fill="none" xmlns="http://www.w3.org/2000/svg">
<path d="M42.6979 115.065L47.8589 117.482L44.1578 125.487L43.1265 124.998L46.4418 117.84L42.3136 115.903L42.6979 115.065Z" fill="black"/>
<path d="M37.3124 122.068L32.9219 119.302L33.4296 118.527L36.8611 120.691L38.4266 118.297L35.2817 116.32L35.7894 115.545L38.9343 117.522L40.6369 114.918L37.1472 112.722L37.6549 111.947L42.1022 114.754L37.3124 122.068Z" fill="black"/>
<path d="M31.4664 109.942L34.1392 112.166L36.4873 110.96L37.3535 111.68L28.634 116.021L28.243 115.694L31.4192 106.755L32.3422 107.517L31.4664 109.942ZM33.2527 112.606L31.1191 110.837L30.1442 113.499L29.5186 114.703L29.5274 114.714L30.6878 113.926L33.2527 112.606Z" fill="black"/>
<path d="M24.341 111.713C24.0693 111.499 23.7628 111.239 23.4432 110.927C23.1222 110.625 22.8317 110.329 22.579 110.06C22.3001 109.756 22.0649 109.442 21.885 109.109C21.705 108.776 21.5862 108.456 21.5429 108.122C21.4997 107.788 21.5495 107.462 21.672 107.142C21.8048 106.824 22.0407 106.518 22.3871 106.243C22.9257 105.811 23.4931 105.602 24.0965 105.637C24.7015 105.662 25.2698 105.858 25.8002 106.232L25.7298 105.459L26.8673 101.53L27.7489 102.49L26.531 106.806L27.2772 107.896L30.3922 105.378L31.1474 106.203L24.341 111.713ZM23.2675 109.471C23.3488 109.557 23.4302 109.642 23.51 109.738C23.5899 109.833 23.6814 109.921 23.7642 109.997C23.847 110.073 23.9298 110.149 24.0025 110.223C24.0751 110.297 24.1405 110.35 24.1986 110.382L26.727 108.335L26.0168 107.559C25.6043 107.1 25.1436 106.818 24.6479 106.697C24.1522 106.575 23.6692 106.713 23.2019 107.091C22.8541 107.375 22.6733 107.732 22.6597 108.163C22.6461 108.594 22.8725 109.035 23.2675 109.471Z" fill="black"/>
<path d="M20.4194 102.027L19.6988 103.253L19.7233 103.297L20.766 102.559L25.8412 99.7036L26.419 100.568L18.542 105.008L18.2199 104.52L20.9234 97.9218L21.6049 96.7467L21.5717 96.6909L20.5941 97.4129L15.5421 100.254L14.9643 99.3897L22.8413 94.9496L23.1634 95.4374L20.4194 102.027Z" fill="black"/>
<path d="M12.5323 85.2698L11.1731 85.4913L11.1947 85.5545L12.5708 85.699L17.3358 86.8802L17.4453 87.1868L14.3143 90.5928L13.2812 91.3416L13.3028 91.4049L14.5496 90.8957L20.4455 89.3295L20.7899 90.2819L12.0047 92.5894L11.7352 91.8287L15.2686 87.9759L16.1007 87.3133L16.0935 87.2922L14.953 87.1763L9.57092 85.8003L9.28561 85.007L18.0708 82.6995L18.4368 83.7151L12.5323 85.2698Z" fill="black"/>
<path d="M13.5114 81.4812C11.9851 81.5984 10.7605 81.3773 9.84894 80.8105C8.93597 80.2532 8.39081 79.4003 8.21348 78.252C8.12054 77.638 8.14281 77.0865 8.29756 76.6207C8.45231 76.1548 8.71217 75.7494 9.08435 75.4256C9.45653 75.1017 9.91222 74.8437 10.4716 74.6557C11.0309 74.4676 11.6623 74.3528 12.3886 74.2965C13.9149 74.1793 15.1381 74.4098 16.051 74.9672C16.964 75.5245 17.5178 76.3888 17.6951 77.5371C17.7881 78.1512 17.7586 78.6817 17.6039 79.1475C17.4491 79.6134 17.1806 80.0072 16.8185 80.3332C16.4564 80.6591 15.9907 80.915 15.4313 81.1031C14.859 81.308 14.2276 81.4228 13.5114 81.4812ZM13.3383 80.3728C13.8442 80.3299 14.314 80.2504 14.7609 80.1174C15.1977 79.9823 15.5784 79.8065 15.8928 79.5879C16.2087 79.3598 16.4381 79.0848 16.5927 78.7555C16.7473 78.4262 16.7953 78.0458 16.7252 77.6217C16.6051 76.8461 16.1965 76.2553 15.5182 75.863C14.8299 75.4686 13.8443 75.3159 12.5602 75.4143C12.0659 75.4498 11.5946 75.5388 11.1491 75.6624C10.7022 75.7954 10.3317 75.9732 10.0158 76.2013C9.69994 76.4294 9.46903 76.7138 9.31445 77.0432C9.15986 77.3725 9.11186 77.7529 9.18052 78.1864C9.3021 78.9526 9.70058 79.5413 10.3889 79.9357C11.0687 80.3185 12.0542 80.4712 13.3383 80.3728Z" fill="black"/>
<path d="M8.06171 71.4741C8.00743 71.1518 7.96039 70.7823 7.93068 70.3677C7.90097 69.9531 7.88704 69.5709 7.89751 69.2326C7.90517 68.8451 7.95019 68.4847 8.04411 68.144C8.13802 67.8033 8.28654 67.5126 8.49111 67.2626C8.69569 67.0126 8.96349 66.8241 9.29451 66.6972C9.62553 66.5702 10.0183 66.5143 10.4901 66.5523C11.218 66.6134 11.7945 66.8478 12.24 67.2598C12.6855 67.6717 12.9726 68.1681 13.1215 68.7529L13.6228 68.1939L17.3178 66.3125L17.2977 67.5242L13.2686 69.6194L13.0514 70.8298L17.2458 71.1709L17.2316 72.2088L8.06171 71.4741ZM8.84547 69.2803C8.83958 69.3861 8.84232 69.5034 8.83499 69.6186C8.83773 69.7359 8.84046 69.8532 8.84465 69.961C8.84884 70.0689 8.86454 70.1693 8.87018 70.2677C8.87581 70.3662 8.88435 70.4457 8.9073 70.499L12.3221 70.7782L12.3377 69.7989C12.3427 69.2261 12.1994 68.7397 11.9078 68.3397C11.6163 67.9397 11.1519 67.7184 10.5161 67.6664C10.0443 67.6284 9.64138 67.7504 9.3375 68.0385C9.01493 68.3131 8.85763 68.7284 8.84547 69.2803Z" fill="black"/>
<path d="M8.58765 62.7782L9.38168 58.1828L10.3399 58.3965L9.72166 61.9898L12.6979 62.6419L13.27 59.3467L14.2296 59.5511L13.6576 62.8462L16.8941 63.5511L17.5224 59.8927L18.4806 60.1063L17.6765 64.7669L8.58765 62.7782Z" fill="black"/>
<path d="M23.4855 47.3777L21.2595 51.8852L12.8655 47.7857L13.3156 46.8794L20.8166 50.5486L22.5939 46.938L23.4855 47.3777Z" fill="black"/>
<path d="M16.3548 40.9902L19.008 37.1116L19.8379 37.6609L17.7614 40.6933L20.3389 42.3786L22.2409 39.6027L23.0722 40.1425L21.1703 42.9185L23.975 44.7476L26.0904 41.6647L26.9217 42.2045L24.2296 46.1336L16.3548 40.9902Z" fill="black"/>
<path d="M28.8088 35.9351L26.6319 38.2596L28.0109 40.5894L27.3025 41.3418L22.3334 32.7293L22.6565 32.3858L32.1382 36.1964L31.3923 36.9898L28.8088 35.9351ZM26.1215 37.3849L27.8627 35.5272L25.0358 34.3642L23.75 33.6625L23.7385 33.6699L24.6203 34.8351L26.1215 37.3849Z" fill="black"/>
<path d="M26.8316 28.3371C27.0451 28.0979 27.3033 27.8386 27.6063 27.5591C27.9092 27.2797 28.1962 27.036 28.4674 26.8281C28.7731 26.598 29.0947 26.4004 29.4191 26.2521C29.7535 26.1059 30.0879 26.028 30.4323 26.0204C30.7767 26.0127 31.1196 26.0828 31.4609 26.2306C31.8022 26.3784 32.1276 26.6303 32.437 26.9861C32.9147 27.5324 33.1619 28.0901 33.1583 28.6551C33.1649 29.2221 32.9812 29.7405 32.6291 30.205L33.4303 30.203L37.5886 31.6382L36.6323 32.3791L32.0635 30.8404L30.9619 31.4442L33.7521 34.609L32.9272 35.2402L26.8316 28.3371ZM29.1092 27.525C29.0255 27.5957 28.9318 27.6643 28.8381 27.7329C28.7443 27.8015 28.6607 27.8722 28.5756 27.9523C28.4919 28.023 28.4183 28.0958 28.3462 28.159C28.2741 28.2223 28.2236 28.2803 28.1846 28.3308L30.451 30.9106L31.2183 30.3165C31.6784 29.9619 31.9483 29.5586 32.0497 29.1015C32.1511 28.6443 31.9831 28.1808 31.5687 27.6962C31.2492 27.3383 30.8647 27.1329 30.4238 27.0915C29.9945 27.0427 29.5462 27.1852 29.1092 27.525Z" fill="black"/>
<path d="M36.8286 24.6908L35.4996 23.8889L35.4547 23.9091L36.2943 24.9738L39.5661 30.0686L38.69 30.5368L33.6053 22.618L34.0947 22.3552L41.1908 25.5348L42.4635 26.2958L42.5199 26.2681L41.7121 25.2687L38.4489 20.1855L39.3337 19.7289L44.4184 27.6478L43.929 27.9106L36.8286 24.6908Z" fill="black"/>
<path d="M53.8027 17.5779L53.4929 16.2573L53.4276 16.2734L53.3436 17.5722L52.3491 22.0141L52.0347 22.0872L48.2756 18.7835L47.4237 17.7252L47.3585 17.7413L47.9639 18.9751L49.9096 24.7654L48.9215 25.005L46.0275 16.3982L46.8099 16.2049L51.0581 19.9328L51.7943 20.7907L51.8161 20.7853L51.8767 19.7076L53.0529 14.694L53.8773 14.4994L56.7713 23.1062L55.718 23.362L53.8027 17.5779Z" fill="black"/>
<path d="M57.4503 18.0568C57.247 16.5756 57.4243 15.4189 57.9705 14.594C58.5167 13.7692 59.394 13.3178 60.611 13.2515C61.2668 13.2182 61.8425 13.2966 62.3483 13.489C62.854 13.6813 63.2928 13.9683 63.6631 14.3597C64.0348 14.7415 64.3294 15.2159 64.56 15.766C64.789 16.3257 64.9453 16.9493 65.039 17.639C65.2423 19.1202 65.065 20.2769 64.5188 21.1018C63.9726 21.9266 63.0852 22.3759 61.8681 22.4422C61.2225 22.4776 60.6469 22.3992 60.1513 22.2089C59.6455 22.0166 59.2169 21.7316 58.8466 21.3403C58.4749 20.9585 58.1803 20.484 57.9497 19.9339C57.7192 19.3839 57.544 18.7465 57.4503 18.0568ZM58.615 17.9897C58.6871 18.4778 58.7942 18.9434 58.958 19.3812C59.1218 19.819 59.3263 20.1961 59.5819 20.5147C59.8374 20.8332 60.1453 21.0837 60.5057 21.2659C60.8661 21.4482 61.2644 21.5199 61.718 21.5043C62.5439 21.4566 63.1404 21.1252 63.5294 20.5047C63.9183 19.8843 64.0299 18.9508 63.854 17.7019C63.792 17.216 63.6733 16.7578 63.5096 16.32C63.3458 15.8822 63.131 15.503 62.877 15.1749C62.6229 14.8467 62.3033 14.6038 61.943 14.4215C61.5826 14.2393 61.1741 14.1655 60.719 14.1906C59.9047 14.2309 59.3067 14.5719 58.928 15.1944C58.5507 15.8073 58.4493 16.743 58.615 17.9897Z" fill="black"/>
<path d="M67.2339 13.0642C67.5752 13.0352 67.9645 13.0358 68.4165 13.0394C68.8568 13.0505 69.2636 13.0745 69.6266 13.1093C70.0407 13.1545 70.4285 13.2339 70.8001 13.3495C71.1704 13.4747 71.4924 13.6395 71.7634 13.863C72.0343 14.0865 72.2556 14.3592 72.4156 14.6885C72.5756 15.0178 72.6422 15.407 72.6257 15.8583C72.603 16.5555 72.3836 17.0937 71.9661 17.4827C71.5487 17.8717 71.0278 18.1111 70.4051 18.1911L71.0286 18.724L73.2332 22.467L71.9371 22.34L69.4908 18.2511L68.1818 17.9337L68.0386 21.957L66.9291 21.8485L67.2339 13.0642ZM69.6226 14.0277C69.5089 14.0143 69.3835 14.0084 69.2596 13.9929C69.1357 13.9774 69.0103 13.9715 68.8951 13.9677C68.7799 13.9639 68.6648 13.9601 68.57 13.9605C68.465 13.9587 68.3804 13.9612 68.325 13.9795L68.2132 17.2482L69.26 17.3538C69.8724 17.4099 70.3916 17.3185 70.7972 17.0754C71.2029 16.8322 71.4265 16.4036 71.4461 15.7947C71.4627 15.3434 71.313 14.9471 70.9955 14.6152C70.6678 14.2812 70.2146 14.0797 69.6226 14.0277Z" fill="black"/>
<path d="M75.9281 13.8048L81.0026 14.99L80.8293 15.9092L76.8624 14.98L76.3278 17.8342L79.9667 18.6865L79.7935 19.6058L76.1545 18.7534L75.5711 21.8562L79.6101 22.8001L79.4368 23.7194L74.2918 22.5099L75.9281 13.8048Z" fill="black"/>
<path d="M92.044 28.9726L86.9735 26.3653L91.0229 18.5286L92.0384 19.0543L88.4149 26.0618L92.4698 28.1434L92.044 28.9726Z" fill="black"/>
<path d="M97.7096 22.2132L101.989 25.1323L101.454 25.8813L98.1068 23.5972L96.4377 25.9198L99.5001 28.0075L98.9652 28.7565L95.9027 26.6688L94.0966 29.2003L97.5008 31.5257L96.9658 32.2747L92.6295 29.3143L97.7096 22.2132Z" fill="black"/>
<path d="M103.076 34.5463L100.493 32.2332L98.0879 33.3473L97.2472 32.6034L106.157 28.6127L106.545 28.9582L102.987 37.7314L102.101 36.9389L103.076 34.5463ZM101.383 31.834L103.449 33.6863L104.531 31.0789L105.214 29.9079L105.205 29.8962L104.011 30.6373L101.383 31.834Z" fill="black"/>
<path d="M110.265 33.0824C110.535 33.3053 110.819 33.5801 111.138 33.892C111.446 34.2113 111.726 34.5053 111.965 34.7909C112.232 35.1019 112.454 35.4332 112.624 35.7636C112.794 36.0941 112.9 36.4312 112.922 36.7611C112.945 37.0911 112.895 37.4161 112.753 37.7318C112.61 38.0476 112.365 38.3425 112 38.6028C111.444 39.0115 110.86 39.1973 110.26 39.1434C109.658 39.099 109.094 38.8752 108.576 38.493L108.616 39.2601L107.309 43.1325L106.464 42.1413L107.861 37.8834L107.162 36.7643L103.943 39.1508L103.223 38.3035L110.265 33.0824ZM111.25 35.354C111.18 35.2609 111.099 35.1752 111.019 35.08C110.939 34.9848 110.858 34.8992 110.776 34.8135C110.695 34.7279 110.612 34.6518 110.54 34.5778C110.467 34.5038 110.402 34.4509 110.345 34.4098L107.728 36.3578L108.403 37.1564C108.804 37.6229 109.25 37.9311 109.742 38.0714C110.235 38.2117 110.725 38.0952 111.211 37.7314C111.577 37.4615 111.768 37.1063 111.792 36.6774C111.805 36.2465 111.631 35.8068 111.25 35.354Z" fill="black"/>
<path d="M113.794 42.8973L114.562 41.7014L114.537 41.6571L113.459 42.358L108.26 45.01L107.716 44.1338L115.782 40.0096L116.082 40.5025L113.106 46.9729L112.378 48.118L112.411 48.1738L113.424 47.4889L118.601 44.8423L119.145 45.7186L111.079 49.8427L110.779 49.3498L113.794 42.8973Z" fill="black"/>
<path d="M121.001 59.9203L122.373 59.7504L122.352 59.6872L120.985 59.4857L116.268 58.1284L116.168 57.8239L119.445 54.5559L120.524 53.846L120.503 53.7828L119.231 54.2477L113.248 55.5704L112.947 54.6074L121.835 52.6447L122.073 53.4086L118.374 57.1192L117.506 57.7449L117.513 57.766L118.647 57.9198L123.978 59.4911L124.232 60.2876L115.332 62.2576L115.01 61.2314L121.001 59.9203Z" fill="black"/>
<path d="M119.889 63.7403C121.426 63.684 122.643 63.9523 123.53 64.5431C124.417 65.1339 124.928 65.9991 125.064 67.1481C125.135 67.7672 125.083 68.3122 124.908 68.7737C124.733 69.2353 124.456 69.6174 124.065 69.9276C123.684 70.2398 123.212 70.4746 122.635 70.6396C122.069 70.8065 121.42 70.8983 120.709 70.9283C119.171 70.9846 117.954 70.7163 117.069 70.1161C116.172 69.5232 115.662 68.6486 115.528 67.4902C115.455 66.8805 115.516 66.347 115.691 65.8854C115.866 65.4239 116.153 65.0438 116.534 64.7316C116.914 64.4194 117.387 64.1846 117.964 64.0196C118.529 63.8621 119.168 63.7589 119.889 63.7403ZM120.02 64.8495C119.507 64.8714 119.03 64.9299 118.586 65.0439C118.142 65.158 117.753 65.3222 117.43 65.5292C117.106 65.7456 116.858 66.0069 116.693 66.3341C116.519 66.6591 116.462 67.0278 116.51 67.457C116.599 68.2356 116.974 68.8388 117.648 69.2593C118.322 69.6798 119.301 69.8703 120.588 69.8212C121.089 69.8067 121.567 69.7387 122.011 69.6247C122.455 69.5107 122.844 69.3465 123.169 69.13C123.493 68.9135 123.743 68.6428 123.906 68.3251C124.08 68.0001 124.139 67.6219 124.09 67.1927C124 66.4236 123.623 65.8298 122.95 65.4093C122.287 64.9814 121.307 64.8004 120.02 64.8495Z" fill="black"/>
<path d="M124.939 73.9311C124.983 74.251 125.009 74.6252 125.018 75.0351C125.028 75.445 125.032 75.8246 125.01 76.1698C124.992 76.5546 124.927 76.9104 124.814 77.2371C124.702 77.5638 124.543 77.852 124.33 78.0902C124.117 78.3284 123.841 78.5051 123.502 78.6204C123.172 78.7377 122.763 78.7706 122.304 78.7159C121.581 78.6267 121.008 78.3737 120.586 77.9476C120.154 77.5195 119.889 77.0185 119.773 76.4219L119.255 76.9572L115.481 78.6928L115.553 77.4837L119.668 75.5554L119.935 74.357L115.757 73.8637L115.811 72.8356L124.939 73.9311ZM124.058 76.0824C124.064 75.9768 124.071 75.8617 124.079 75.7467C124.086 75.6316 124.083 75.5145 124.089 75.4088C124.085 75.3011 124.081 75.1935 124.084 75.1067C124.087 75.0198 124.07 74.9289 124.058 74.8683L120.655 74.4651L120.599 75.4347C120.564 76.0006 120.696 76.4936 120.964 76.9078C121.244 77.3145 121.695 77.5523 122.336 77.6345C122.814 77.6934 123.206 77.5789 123.536 77.3162C123.85 77.0306 124.026 76.6294 124.058 76.0824Z" fill="black"/>
<path d="M124.063 82.5685L123.098 87.1371L122.144 86.8951L122.903 83.3241L119.939 82.5777L119.248 85.8447L118.293 85.6027L118.984 82.3356L115.772 81.5289L115.004 85.1559L114.05 84.9138L115.023 80.2892L124.063 82.5685Z" fill="black"/>
<path d="M108.549 97.3831L110.966 92.9746L119.198 97.3747L118.711 98.2537L111.346 94.3169L109.406 97.8444L108.549 97.3831Z" fill="black"/>
<path d="M115.439 104.033L112.615 107.803L111.799 107.227L114.009 104.277L111.496 102.497L109.471 105.192L108.655 104.616L110.68 101.921L107.952 99.9888L105.705 102.98L104.889 102.403L107.751 98.5929L115.439 104.033Z" fill="black"/>
<path d="M102.774 108.612L105.063 106.376L103.783 104.006L104.518 103.287L109.144 112.063L108.802 112.393L99.4497 108.235L100.234 107.468L102.774 108.612ZM105.519 107.27L103.695 109.055L106.477 110.317L107.737 111.062L107.748 111.055L106.912 109.859L105.519 107.27Z" fill="black"/>
<path d="M104.455 116.272C104.233 116.5 103.965 116.757 103.653 117.026C103.341 117.294 103.035 117.524 102.756 117.72C102.441 117.939 102.112 118.116 101.779 118.253C101.446 118.389 101.094 118.444 100.751 118.443C100.408 118.441 100.068 118.352 99.7278 118.194C99.3877 118.037 99.0753 117.768 98.7773 117.405C98.3224 116.843 98.0968 116.28 98.122 115.709C98.1471 115.138 98.3395 114.631 98.7206 114.182L97.9133 114.154L93.8069 112.572L94.7995 111.868L99.3138 113.572L100.44 113.011L97.7773 109.754L98.6299 109.147L104.455 116.272ZM102.138 116.999C102.23 116.94 102.324 116.871 102.418 116.802C102.512 116.734 102.605 116.665 102.689 116.594C102.773 116.523 102.855 116.462 102.927 116.399C102.999 116.336 103.06 116.28 103.087 116.236L100.925 113.579L100.13 114.148C99.663 114.482 99.3641 114.87 99.2526 115.325C99.1309 115.779 99.2774 116.248 99.6805 116.74C99.977 117.113 100.36 117.328 100.808 117.391C101.236 117.449 101.684 117.316 102.138 116.999Z" fill="black"/>
<path d="M94.3227 119.514L95.6246 120.36L95.6696 120.34L94.876 119.245L91.8071 114.042L92.6994 113.606L97.4588 121.688L96.9504 121.937L89.9749 118.496L88.7293 117.692L88.6728 117.719L89.4447 118.751L92.4962 123.93L91.6039 124.366L86.8445 116.285L87.353 116.036L94.3227 119.514Z" fill="black"/>
<path d="M77.0618 125.962L77.3181 127.291L77.3833 127.275L77.5181 125.986L78.7039 121.593L79.027 121.531L82.6517 124.965L83.4573 126.053L83.5225 126.037L82.9605 124.792L81.2522 118.952L82.2548 118.754L84.7928 127.437L83.9944 127.597L79.8936 123.722L79.192 122.842L79.1703 122.847L79.059 123.915L77.6726 128.866L76.8424 129.03L74.3045 120.348L75.3723 120.134L77.0618 125.962Z" fill="black"/>
<path d="M73.4426 125.33C73.582 126.818 73.3552 127.955 72.7696 128.763C72.1839 129.57 71.2816 129.977 70.0714 129.995C69.4184 130.01 68.8367 129.9 68.3337 129.689C67.8307 129.477 67.4048 129.173 67.0562 128.776C66.7076 128.379 66.4245 127.897 66.2274 127.334C66.0201 126.769 65.8855 126.14 65.8238 125.446C65.6844 123.958 65.9112 122.821 66.4969 122.014C67.0825 121.206 67.995 120.801 69.2168 120.775C69.8699 120.761 70.4414 120.868 70.9342 121.078C71.4271 121.287 71.8529 121.591 72.2015 121.988C72.5501 122.385 72.8332 122.867 73.0303 123.43C73.2464 124.007 73.3809 124.637 73.4426 125.33ZM72.2747 125.347C72.2243 124.853 72.1376 124.392 71.9956 123.948C71.8536 123.505 71.6606 123.12 71.4166 122.794C71.1726 122.468 70.8777 122.201 70.5186 122.009C70.1698 121.819 69.7641 121.726 69.3117 121.732C68.4899 121.751 67.8655 122.057 67.4474 122.662C67.0292 123.267 66.8871 124.194 67.0005 125.441C67.0421 125.923 67.139 126.386 67.281 126.83C67.4231 127.273 67.6262 127.66 67.8688 127.996C68.1113 128.331 68.4193 128.582 68.7682 128.772C69.117 128.961 69.5227 129.054 69.9853 129.051C70.8056 129.041 71.4198 128.733 71.8278 128.126C72.2358 127.519 72.3881 126.593 72.2747 125.347Z" fill="black"/>
<path d="M63.48 129.916C63.1413 129.926 62.7413 129.923 62.3034 129.893C61.8553 129.861 61.4495 129.827 61.0889 129.773C60.6758 129.718 60.2906 129.62 59.9316 129.487C59.5726 129.354 59.2531 129.17 58.9833 128.937C58.7135 128.703 58.5138 128.425 58.3653 128.088C58.2168 127.751 58.1603 127.363 58.1974 126.916C58.2507 126.224 58.4908 125.689 58.9277 125.314C59.3647 124.938 59.8934 124.72 60.5242 124.661L59.9146 124.101L57.8548 120.286L59.1539 120.473L61.4439 124.642L62.7369 125.005L63.0453 121.002L64.1605 121.151L63.48 129.916ZM61.1338 128.862C61.2477 128.876 61.3717 128.891 61.4943 128.916C61.6184 128.932 61.7425 128.947 61.8578 128.951C61.9731 128.955 62.087 128.968 62.1921 128.97C62.2972 128.972 62.3804 128.979 62.4461 128.963L62.6938 125.699L61.6399 125.562C61.021 125.475 60.5041 125.547 60.0776 125.787C59.651 126.026 59.4199 126.434 59.368 127.046C59.3295 127.504 59.4692 127.898 59.7754 128.238C60.0933 128.57 60.5456 128.781 61.1338 128.862Z" fill="black"/>
<path d="M54.8088 128.816L49.7821 127.442L49.9962 126.531L53.9245 127.602L54.5786 124.795L50.9763 123.811L51.1905 122.901L54.7927 123.885L55.5074 120.822L51.5086 119.727L51.7227 118.817L56.8112 120.204L54.8088 128.816Z" fill="black"/>
</svg>
