<svg width="65" height="18" viewBox="0 0 65 18" fill="none" xmlns="http://www.w3.org/2000/svg">
<path d="M2.928 16.616L0.96 16.808V17H12.72L13.32 11.768L13.032 11.72L11.4 15.824C11.256 16.176 11.096 16.416 10.92 16.544C10.744 16.656 10.464 16.712 10.08 16.712H4.776V0.823999L6.864 0.631999V0.439999H0.96V0.631999L2.928 0.823999V16.616ZM22.8002 0.0559993C24.1922 0.0559993 25.4642 0.439999 26.6162 1.208C27.7842 1.976 28.6962 3.024 29.3522 4.352C30.0242 5.664 30.3602 7.12 30.3602 8.72C30.3602 10.32 30.0242 11.784 29.3522 13.112C28.6962 14.424 27.7842 15.464 26.6162 16.232C25.4642 17 24.1922 17.384 22.8002 17.384C21.4082 17.384 20.1282 17 18.9602 16.232C17.8082 15.464 16.8962 14.424 16.2242 13.112C15.5682 11.784 15.2402 10.32 15.2402 8.72C15.2402 7.12 15.5682 5.664 16.2242 4.352C16.8962 3.024 17.8082 1.976 18.9602 1.208C20.1282 0.439999 21.4082 0.0559993 22.8002 0.0559993ZM17.5442 8.72C17.5442 11.392 18.0002 13.456 18.9122 14.912C19.8242 16.352 21.1202 17.072 22.8002 17.072C24.4802 17.072 25.7762 16.352 26.6882 14.912C27.6002 13.456 28.0562 11.392 28.0562 8.72C28.0562 6.048 27.6002 3.984 26.6882 2.528C25.7762 1.072 24.4802 0.344 22.8002 0.344C21.1202 0.344 19.8242 1.072 18.9122 2.528C18.0002 3.984 17.5442 6.048 17.5442 8.72ZM44.2892 15.152C43.8892 15.728 43.3452 16.2 42.6572 16.568C41.9692 16.92 41.2252 17.096 40.4252 17.096C38.7452 17.096 37.4492 16.368 36.5372 14.912C35.6252 13.456 35.1692 11.392 35.1692 8.72C35.1692 6.048 35.6252 3.984 36.5372 2.528C37.4492 1.072 38.7532 0.344 40.4492 0.344C41.3612 0.344 42.1852 0.559999 42.9212 0.991999C43.6732 1.408 44.2892 2.008 44.7692 2.792C45.2492 3.592 45.6012 4.608 45.8252 5.84L46.1612 5.744L45.9212 0.344H45.6092L45.0332 1.496C44.1212 0.999999 43.2892 0.639999 42.5372 0.415999C41.8012 0.175999 41.0812 0.0559993 40.3772 0.0559993C39.0012 0.0559993 37.7372 0.439999 36.5852 1.208C35.4332 1.976 34.5212 3.024 33.8492 4.352C33.1932 5.68 32.8652 7.136 32.8652 8.72C32.8652 10.32 33.1932 11.784 33.8492 13.112C34.5212 14.424 35.4332 15.464 36.5852 16.232C37.7532 17 39.0332 17.384 40.4252 17.384C41.2572 17.384 42.2252 17.224 43.3292 16.904C44.4332 16.584 45.3692 16.072 46.1372 15.368V9.104L48.1052 8.912V8.72H42.5612V8.912L44.2892 9.104V15.152ZM57.3002 0.0559993C58.6922 0.0559993 59.9642 0.439999 61.1162 1.208C62.2842 1.976 63.1962 3.024 63.8522 4.352C64.5242 5.664 64.8602 7.12 64.8602 8.72C64.8602 10.32 64.5242 11.784 63.8522 13.112C63.1962 14.424 62.2842 15.464 61.1162 16.232C59.9642 17 58.6922 17.384 57.3002 17.384C55.9082 17.384 54.6282 17 53.4602 16.232C52.3082 15.464 51.3962 14.424 50.7242 13.112C50.0682 11.784 49.7402 10.32 49.7402 8.72C49.7402 7.12 50.0682 5.664 50.7242 4.352C51.3962 3.024 52.3082 1.976 53.4602 1.208C54.6282 0.439999 55.9082 0.0559993 57.3002 0.0559993ZM52.0442 8.72C52.0442 11.392 52.5002 13.456 53.4122 14.912C54.3242 16.352 55.6202 17.072 57.3002 17.072C58.9802 17.072 60.2762 16.352 61.1882 14.912C62.1002 13.456 62.5562 11.392 62.5562 8.72C62.5562 6.048 62.1002 3.984 61.1882 2.528C60.2762 1.072 58.9802 0.344 57.3002 0.344C55.6202 0.344 54.3242 1.072 53.4122 2.528C52.5002 3.984 52.0442 6.048 52.0442 8.72Z" fill="black"/>
</svg>
